<svg width="57" height="57" viewBox="0 0 57 57" fill="none" xmlns="http://www.w3.org/2000/svg">
<path d="M28.2223 4.38399C29.659 4.37463 31.0832 4.65204 32.4114 5.19997C33.7396 5.7479 34.945 6.55531 35.9573 7.57497L41.5942 13.212L48.8733 20.489C49.8911 21.5053 50.6986 22.7124 51.2495 24.0411C51.8004 25.3698 52.084 26.7941 52.084 28.2325C52.084 29.6709 51.8004 31.0951 51.2495 32.4238C50.6986 33.7525 49.8911 34.9596 48.8733 35.976L42.0863 42.766L35.9563 48.89C33.9002 50.9326 31.1195 52.0791 28.2212 52.0791C25.3229 52.0791 22.5423 50.9326 20.4862 48.89L13.6863 42.09L7.5752 35.978C5.53028 33.9196 4.38257 31.136 4.38257 28.2345C4.38257 25.333 5.53028 22.5493 7.5752 20.491L14.5253 13.537L20.4912 7.57698C21.4991 6.55604 22.7029 5.74923 24.0303 5.20497C25.3626 4.65766 26.7899 4.37934 28.2302 4.386L28.2223 4.38399ZM28.2223 0.00495805C24.1605 -0.000413923 20.2629 1.60745 17.3862 4.47499L11.4203 10.437L4.46924 17.392C1.60672 20.2711 0 24.166 0 28.226C0 32.2859 1.60672 36.1809 4.46924 39.06L10.5813 45.175L17.3812 51.975C20.2617 54.8368 24.1573 56.4431 28.2178 56.4431C32.2782 56.4431 36.1737 54.8368 39.0542 51.975L45.1832 45.847L51.9692 39.057C54.8321 36.1777 56.4391 32.2824 56.4391 28.222C56.4391 24.1616 54.8321 20.2663 51.9692 17.387L44.7002 10.109L39.0632 4.46999C36.1863 1.60229 32.2883 -0.0055132 28.2262 1.42048e-05" fill="#B12F15"/>
<path d="M27.7761 15.2019C28.6019 15.1994 29.4202 15.3594 30.1842 15.6729C30.9457 15.9823 31.635 16.4457 32.2091 17.0339L38.9772 23.7929C39.5613 24.376 40.0247 25.0685 40.3408 25.8309C40.657 26.5933 40.8197 27.4105 40.8197 28.2358C40.8197 29.0612 40.657 29.8784 40.3408 30.6408C40.0247 31.4032 39.5613 32.0957 38.9772 32.6788L32.2091 39.4379C31.0286 40.6119 29.4315 41.2708 27.7666 41.2708C26.1017 41.2708 24.5046 40.6119 23.3241 39.4379L16.5562 32.6788C15.3874 31.4954 14.7321 29.8991 14.7321 28.2358C14.7321 26.5726 15.3874 24.9763 16.5562 23.7929L23.3241 17.0339C23.9085 16.45 24.6027 15.9875 25.3666 15.673C26.1305 15.3586 26.95 15.1985 27.7761 15.2019ZM27.7761 13.4689C26.7225 13.4628 25.6782 13.6665 24.7041 14.0681C23.73 14.4696 22.8455 15.0611 22.1022 15.8079L15.3341 22.5668C13.8383 24.0746 12.999 26.1124 12.999 28.2363C12.999 30.3602 13.8383 32.398 15.3341 33.9058L22.1022 40.6649C23.6068 42.1627 25.6435 43.0037 27.7666 43.0037C29.8897 43.0037 31.9265 42.1627 33.4312 40.6649L40.1991 33.9058C41.6949 32.398 42.5343 30.3602 42.5343 28.2363C42.5343 26.1124 41.6949 24.0746 40.1991 22.5668L33.4312 15.8079C32.6925 15.0621 31.8119 14.4722 30.8412 14.0729C29.8688 13.6733 28.8274 13.4681 27.7761 13.4689Z" fill="#B12F15"/>
<path d="M29.4804 10.545C30.8415 10.5408 32.1842 10.859 33.3986 11.4736C34.6131 12.0882 35.6647 12.9817 36.4673 14.081L44.1293 24.65C45.4579 26.4958 46.0021 28.7924 45.6431 31.0381C45.2841 33.2839 44.0511 35.2964 42.2133 36.636L31.6503 44.298C30.1929 45.3581 28.4356 45.9263 26.6333 45.92C25.2725 45.9241 23.93 45.606 22.7156 44.9917C21.5012 44.3775 20.4494 43.4846 19.6463 42.386L11.9843 31.816C10.6554 29.9704 10.1108 27.6738 10.4696 25.428C10.8285 23.1822 12.0615 21.1697 13.8993 19.83L24.4804 12.168C25.933 11.111 27.6839 10.5427 29.4804 10.545ZM29.4804 8.17699C27.1821 8.17734 24.9424 8.90276 23.0804 10.25L12.5174 17.912C10.1714 19.6186 8.59694 22.1851 8.13872 25.0497C7.68049 27.9143 8.37576 30.8438 10.0723 33.197L17.7343 43.767C19.446 46.1129 22.0163 47.6862 24.884 48.1435C27.7517 48.6009 30.6839 47.9051 33.0403 46.208L43.6033 38.546C45.9491 36.8377 47.5231 34.2699 47.9811 31.4043C48.4391 28.5387 47.7438 25.6084 46.0473 23.254L38.3853 12.684C37.3631 11.2853 36.0275 10.1455 34.4854 9.35601C32.9362 8.57001 31.2226 8.16287 29.4854 8.16802" fill="#B12F15"/>
<path d="M28.7461 21.4442C29.4995 21.4251 30.2397 21.6434 30.8621 22.0683C31.4836 22.4897 31.9511 23.1017 32.1941 23.8122L32.2121 23.8393V23.8662L33.7442 29.0052C33.9434 29.8108 33.8188 30.6625 33.3971 31.3772C32.9631 32.0882 32.2696 32.6025 31.4632 32.8112L26.8841 33.9802C26.6342 34.0467 26.3767 34.0803 26.1181 34.0802C25.418 34.082 24.7374 33.8501 24.1841 33.4212C23.6327 32.9884 23.236 32.389 23.0531 31.7122V31.6562L21.5211 26.5202C21.322 25.7159 21.4465 24.8656 21.8681 24.1522C22.3037 23.4422 22.9965 22.9274 23.8021 22.7152H23.8201L27.9611 21.5512C28.2179 21.4898 28.4811 21.4585 28.7451 21.4582L28.7461 21.4442ZM28.7461 20.0282C28.3589 20.0252 27.9728 20.0712 27.5971 20.1652L23.4381 21.3342C22.2665 21.6428 21.2633 22.4001 20.6458 23.4425C20.0282 24.4848 19.8458 25.7285 20.1381 26.9043L21.6701 32.0742C21.9283 33.0588 22.5048 33.9303 23.3098 34.5532C24.1149 35.1761 25.1033 35.5153 26.1211 35.5182C26.5024 35.5205 26.8824 35.4745 27.2521 35.3812L31.8311 34.2122C33.0027 33.9037 34.0059 33.1464 34.6234 32.104C35.241 31.0617 35.4234 29.818 35.1311 28.6422L33.5991 23.4743C33.2606 22.4585 32.609 21.576 31.7381 20.9532C30.8655 20.3324 29.8168 20.0082 28.7461 20.0282Z" fill="#B12F15"/>
</svg>
