<svg width="17" height="15" viewBox="0 0 17 15" fill="none" xmlns="http://www.w3.org/2000/svg">
<path d="M4.99414 3.5C4.718 3.5 4.49414 3.72386 4.49414 4C4.49414 4.27614 4.718 4.5 4.99414 4.5V3.5ZM16.3477 4.35355C16.543 4.15829 16.543 3.84171 16.3477 3.64645L13.1657 0.464466C12.9705 0.269204 12.6539 0.269204 12.4586 0.464466C12.2633 0.659728 12.2633 0.976311 12.4586 1.17157L15.287 4L12.4586 6.82843C12.2633 7.02369 12.2633 7.34027 12.4586 7.53553C12.6539 7.7308 12.9705 7.7308 13.1657 7.53553L16.3477 4.35355ZM4.99414 4.5H15.9941V3.5H4.99414V4.5Z" fill="#C94B32"/>
<path d="M12 11.25C12.2761 11.25 12.5 11.0261 12.5 10.75C12.5 10.4739 12.2761 10.25 12 10.25V11.25ZM0.646446 10.3964C0.451184 10.5917 0.451184 10.9083 0.646446 11.1036L3.82843 14.2855C4.02369 14.4808 4.34027 14.4808 4.53553 14.2855C4.7308 14.0903 4.7308 13.7737 4.53553 13.5784L1.70711 10.75L4.53553 7.92157C4.7308 7.72631 4.7308 7.40973 4.53553 7.21447C4.34027 7.0192 4.02369 7.0192 3.82843 7.21447L0.646446 10.3964ZM12 10.25L1 10.25V11.25L12 11.25V10.25Z" fill="#C94B32"/>
</svg>
