<svg width="20" height="22" viewBox="0 0 20 22" fill="none" xmlns="http://www.w3.org/2000/svg">
<g clip-path="url(#clip0_4090_30426)">
<path d="M13.976 3.46827H17.727C17.9362 3.46299 18.1443 3.49963 18.3391 3.57603C18.5339 3.65242 18.7114 3.76704 18.8612 3.91312C19.011 4.0592 19.1301 4.23378 19.2114 4.42659C19.2927 4.6194 19.3346 4.82653 19.3346 5.03577C19.3346 5.24502 19.2927 5.45215 19.2114 5.64496C19.1301 5.83776 19.011 6.01235 18.8612 6.15843C18.7114 6.30451 18.5339 6.41912 18.3391 6.49552C18.1443 6.57192 17.9362 6.60856 17.727 6.60327H17.283L16.101 18.4813C16.0543 19.0921 15.7794 19.663 15.331 20.0804C14.8826 20.4979 14.2936 20.7313 13.681 20.7343H6.60098C5.98914 20.7308 5.40097 20.4974 4.95323 20.0804C4.50548 19.6634 4.2309 19.0933 4.18398 18.4833L3.00798 6.60527H2.56798C2.15238 6.60527 1.75381 6.44018 1.45994 6.14631C1.16607 5.85244 1.00098 5.45387 1.00098 5.03827C1.00098 4.62268 1.16607 4.22411 1.45994 3.93024C1.75381 3.63637 2.15238 3.47127 2.56798 3.47127H6.31598" stroke="#C94B32" stroke-miterlimit="10" stroke-linecap="round"/>
<path d="M6.31787 3.47119H13.9779" stroke="#C94B32" stroke-miterlimit="10" stroke-linecap="round"/>
<path d="M3.01074 6.60645H17.2857" stroke="#C94B32" stroke-miterlimit="10" stroke-linecap="round"/>
<path d="M14.0968 3.39135H6.19678V2.11335C6.19678 1.93222 6.23249 1.75287 6.30186 1.58555C6.37124 1.41824 6.47292 1.26624 6.60109 1.13825C6.72926 1.01027 6.88141 0.908806 7.04883 0.839672C7.21624 0.770539 7.39565 0.73509 7.57678 0.735353H12.7178C13.0832 0.735353 13.4337 0.880535 13.6922 1.13896C13.9506 1.39738 14.0958 1.74788 14.0958 2.11335L14.0968 3.39135Z" stroke="#C94B32" stroke-miterlimit="10" stroke-linecap="round"/>
</g>
<defs>
<clipPath id="clip0_4090_30426">
<rect width="19.296" height="21" fill="white" transform="translate(0.5 0.234375)"/>
</clipPath>
</defs>
</svg>
