<svg width="25" height="23" viewBox="0 0 25 23" fill="none" xmlns="http://www.w3.org/2000/svg">
<g clip-path="url(#clip0_367_2879)">
<path d="M19.7384 14.0926V15.4526C19.7384 16.6226 18.6084 17.5826 17.2184 17.5826H10.4984L3.97844 21.7726V17.5826H3.60844C2.21844 17.5826 1.08844 16.6326 1.08844 15.4526V4.44263C1.08844 3.27263 2.21844 2.32263 3.60844 2.32263H17.2184C17.9084 2.32263 18.5384 2.56263 18.9984 2.94263" stroke="#76808D" stroke-linecap="round" stroke-linejoin="round"/>
<path d="M4.82844 7.44269H14.0384" stroke="#76808D" stroke-linecap="round" stroke-linejoin="round"/>
<path d="M4.82844 12.1827H11.2484" stroke="#76808D" stroke-linecap="round" stroke-linejoin="round"/>
<path d="M17.7584 13.1827L14.5084 14.8827L14.5884 11.1827C14.5884 10.9327 14.6684 10.6927 14.7984 10.4827L20.4284 1.64266C20.6184 1.34266 20.9484 1.16266 21.2984 1.16266H22.5584C22.9684 1.16266 23.3384 1.40266 23.4984 1.77266L23.9884 2.87266C24.1284 3.19266 24.0984 3.55266 23.9184 3.84266L18.2784 12.7127C18.1484 12.9127 17.9784 13.0727 17.7684 13.1827H17.7584Z" stroke="#76808D" stroke-linecap="round" stroke-linejoin="round"/>
<path d="M22.9084 1.57263L17.1684 10.5926" stroke="#76808D" stroke-linecap="round" stroke-linejoin="round"/>
<path d="M17.9784 12.7627L17.4984 11.5627C17.2884 11.0227 16.7484 10.6827 16.1684 10.7127L14.8584 10.7827" stroke="#76808D" stroke-linecap="round" stroke-linejoin="round"/>
</g>
<defs>
<clipPath id="clip0_367_2879">
<rect width="23.98" height="21.61" fill="white" transform="translate(0.58844 0.662659)"/>
</clipPath>
</defs>
</svg>
