<svg width="25" height="23" viewBox="0 0 25 23" fill="none" xmlns="http://www.w3.org/2000/svg">
<g clip-path="url(#clip0_367_6433)">
<path d="M19.7384 14.0934V15.4534C19.7384 16.6234 18.6084 17.5834 17.2184 17.5834H10.4984L3.97838 21.7734V17.5834H3.60838C2.21838 17.5834 1.08838 16.6334 1.08838 15.4534V4.44339C1.08838 3.27339 2.21838 2.32339 3.60838 2.32339H17.2184C17.9084 2.32339 18.5384 2.56339 18.9984 2.94339" stroke="white" stroke-linecap="round" stroke-linejoin="round"/>
<path d="M4.82837 7.44339H14.0384" stroke="white" stroke-linecap="round" stroke-linejoin="round"/>
<path d="M4.82837 12.1834H11.2484" stroke="white" stroke-linecap="round" stroke-linejoin="round"/>
<path d="M17.7584 13.1834L14.5084 14.8834L14.5884 11.1834C14.5884 10.9334 14.6684 10.6934 14.7984 10.4834L20.4284 1.64339C20.6184 1.34339 20.9484 1.16339 21.2984 1.16339H22.5584C22.9684 1.16339 23.3384 1.40339 23.4984 1.77339L23.9884 2.87339C24.1284 3.19339 24.0984 3.55339 23.9184 3.84339L18.2784 12.7134C18.1484 12.9134 17.9784 13.0734 17.7684 13.1834H17.7584Z" stroke="white" stroke-linecap="round" stroke-linejoin="round"/>
<path d="M22.9083 1.57339L17.1683 10.5934" stroke="white" stroke-linecap="round" stroke-linejoin="round"/>
<path d="M17.9784 12.7634L17.4984 11.5634C17.2884 11.0234 16.7484 10.6834 16.1684 10.7134L14.8584 10.7834" stroke="white" stroke-linecap="round" stroke-linejoin="round"/>
</g>
<defs>
<clipPath id="clip0_367_6433">
<rect width="23.98" height="21.61" fill="white" transform="translate(0.588379 0.663391)"/>
</clipPath>
</defs>
</svg>
