<svg width="148" height="30" viewBox="0 0 148 30" fill="none" xmlns="http://www.w3.org/2000/svg">
<path d="M4.75896 0.4375V20.1575C4.70403 21.0956 4.84894 22.0346 5.18401 22.9125C5.53328 23.5577 6.06186 24.0881 6.70598 24.4395L9.25395 25.8995L7.16594 29.6345C5.1143 28.7552 3.23366 27.5213 1.61003 25.9895C0.462049 24.6008 -0.108288 22.8239 0.017015 21.0265V0.4375H4.75896Z" fill="#B12F15"/>
<path d="M10.9531 13.733C11.5169 12.3028 12.3639 11.0014 13.4432 9.90673C14.5226 8.81209 15.812 7.94686 17.2341 7.36296C20.4872 6.08735 24.102 6.08735 27.3551 7.36296C28.7772 7.94681 30.0666 8.81203 31.146 9.90667C32.2253 11.0013 33.0723 12.3028 33.6361 13.733C34.4652 15.8187 34.6707 18.1004 34.2278 20.3007C33.7849 22.5011 32.7126 24.5254 31.1411 26.128C30.0631 27.2225 28.775 28.0878 27.3541 28.672C24.1007 29.9459 20.4864 29.9459 17.233 28.672C15.8111 28.086 14.5219 27.2192 13.4427 26.1235C12.3635 25.0278 11.5164 23.7256 10.952 22.295C9.85543 19.5462 9.85589 16.4814 10.9531 13.733ZM17.1991 23.093C18.3778 24.3136 19.9444 25.0861 21.6304 25.2782C23.3163 25.4703 25.0167 25.07 26.4398 24.1459C27.8629 23.2217 28.9202 21.8314 29.4305 20.2131C29.9409 18.5948 29.8725 16.8493 29.2369 15.276C28.6014 13.7026 27.4384 12.3993 25.9472 11.5895C24.4561 10.7797 22.7297 10.5138 21.0639 10.8374C19.3982 11.161 17.8969 12.0539 16.8174 13.363C15.7378 14.6722 15.1474 16.3161 15.1471 18.013C15.1493 19.9078 15.8846 21.7283 17.1991 23.093Z" fill="#B12F15"/>
<path d="M38.8211 15.2377C38.7663 14.0609 38.9468 12.8849 39.3521 11.7787C39.7575 10.6737 40.3765 9.65936 41.174 8.79369C41.9103 8.02589 42.795 7.41562 43.7741 6.99975C44.7603 6.58985 45.8203 6.38759 46.8881 6.40569C48.3586 6.36272 49.8114 6.73387 51.0811 7.47674C52.1799 8.12911 53.0276 9.13175 53.4881 10.3237H53.5761C54.047 9.12723 54.9073 8.12429 56.0181 7.47674C57.2828 6.73671 58.7293 6.36565 60.194 6.40569C61.2575 6.38549 62.3135 6.58787 63.2941 6.99975C64.2816 7.41068 65.1731 8.02143 65.913 8.79369C66.711 9.65923 67.3304 10.6736 67.736 11.7787C68.144 12.884 68.3188 14.0617 68.2491 15.2377V29.0377H63.5251V15.2837C63.5822 14.1739 63.2007 13.086 62.4631 12.2547C62.1382 11.8939 61.7392 11.6075 61.2934 11.415C60.8476 11.2226 60.3655 11.1287 59.8801 11.1397C59.3421 11.112 58.8047 11.2021 58.3051 11.4037C57.8041 11.6065 57.3518 11.9133 56.9781 12.3037C56.1846 13.3363 55.8058 14.6282 55.9161 15.9257V29.0427H51.174V15.9217C51.2839 14.6242 50.9053 13.3325 50.1121 12.2997C49.739 11.9086 49.2865 11.6018 48.7851 11.3997C48.2855 11.1982 47.7481 11.1075 47.21 11.1337C46.7237 11.1234 46.241 11.2175 45.7941 11.4097C45.3463 11.606 44.943 11.8915 44.6091 12.2487C43.8839 13.0862 43.51 14.1712 43.5651 15.2777V29.0327H38.8411L38.8211 15.2377Z" fill="#B12F15"/>
<path d="M91.3912 26.3542H91.3032C90.4895 27.3921 89.4318 28.2129 88.2242 28.7432C86.9132 29.3388 85.4882 29.6418 84.0482 29.6312C82.4211 29.6507 80.8093 29.3163 79.3242 28.6512C77.9394 28.0323 76.6982 27.1327 75.6792 26.0092C74.6855 24.9138 73.9109 23.6381 73.3972 22.2512C72.8832 20.898 72.6192 19.4627 72.6182 18.0152C72.6368 16.6017 72.919 15.2041 73.4502 13.8942C73.9985 12.5018 74.7962 11.2212 75.8042 10.1152C76.8567 8.96532 78.1332 8.04277 79.5552 7.40417C81.0383 6.73114 82.6505 6.38986 84.2792 6.40417C85.7347 6.37537 87.1768 6.68735 88.4902 7.31518C89.6227 7.83839 90.5941 8.65579 91.3032 9.68219H91.3912V6.99621H96.1332V29.0402H91.3912V26.3542ZM78.1732 20.7802C78.5389 21.6358 79.0607 22.4158 79.7122 23.0802C80.3535 23.7406 81.121 24.2654 81.9691 24.6233C82.8172 24.9813 83.7286 25.1652 84.6492 25.1642C85.556 25.1611 86.4528 24.974 87.2852 24.6142C88.1273 24.2603 88.8864 23.7347 89.5142 23.0712C90.1508 22.4028 90.6592 21.6232 91.0142 20.7712C91.7398 19.0055 91.7398 17.0249 91.0142 15.2592C90.6596 14.407 90.1511 13.6272 89.5142 12.9592C88.5631 11.9613 87.3297 11.2782 85.9792 11.0015C84.6288 10.7248 83.2261 10.8678 81.9592 11.4112C81.1084 11.7706 80.3382 12.297 79.6942 12.9592C79.0426 13.62 78.5257 14.4012 78.1722 15.2592C77.4466 17.0249 77.4466 19.0055 78.1722 20.7712" fill="#B12F15"/>
<path d="M119.259 26.3544H119.171C118.358 27.3929 117.3 28.2137 116.092 28.7434C114.787 29.338 113.368 29.641 111.934 29.6314C110.301 29.6528 108.683 29.3184 107.192 28.6514C105.81 28.0281 104.569 27.1291 103.547 26.0094C102.553 24.9141 101.779 23.6384 101.265 22.2514C100.757 20.8972 100.499 19.4618 100.504 18.0154C100.508 16.6021 100.784 15.2029 101.318 13.8944C101.866 12.4978 102.67 11.216 103.689 10.1154C104.735 8.96608 106.005 8.04341 107.422 7.40442C108.905 6.73138 110.517 6.39011 112.146 6.40442C113.607 6.3774 115.055 6.68917 116.375 7.31537C117.505 7.84073 118.472 8.66122 119.175 9.69037H119.263V0.441406H124.005V29.0414H119.263L119.259 26.3544ZM106.059 20.7804C106.413 21.6383 106.93 22.4194 107.581 23.0804C108.22 23.7442 108.987 24.2719 109.836 24.6316C110.684 24.9913 111.596 25.1756 112.518 25.1734C113.431 25.172 114.334 24.9849 115.172 24.6234C116.009 24.2606 116.767 23.7363 117.401 23.0804C118.032 22.4074 118.539 21.6289 118.901 20.7804C119.627 19.0147 119.627 17.034 118.901 15.2684C118.54 14.4196 118.032 13.6411 117.401 12.9684C116.765 12.3055 116 11.7789 115.154 11.4204C114.323 11.0581 113.425 10.8725 112.518 10.8754C111.594 10.8716 110.679 11.057 109.829 11.4204C108.984 11.7802 108.219 12.3066 107.582 12.9684C106.931 13.6293 106.414 14.4104 106.06 15.2684C105.692 16.1406 105.503 17.0778 105.503 18.0244C105.503 18.9711 105.691 19.9081 106.059 20.7804Z" fill="#B12F15"/>
<path d="M131.15 22.4815C132.072 23.4546 133.171 24.2428 134.388 24.8035C135.53 25.3813 136.788 25.6935 138.068 25.7165C139.186 25.7641 140.289 25.453 141.217 24.8285C141.559 24.6347 141.85 24.3626 142.066 24.0345C142.278 23.7036 142.406 23.326 142.438 22.9345C142.451 22.6154 142.39 22.2976 142.261 22.0055C142.135 21.7118 141.941 21.4523 141.695 21.2485C141.078 20.7738 140.345 20.4749 139.572 20.3835L136.883 19.8835C134.661 19.6384 132.534 18.8483 130.69 17.5835C130.12 17.0925 129.666 16.4802 129.363 15.7915C129.069 15.1002 128.931 14.3531 128.956 13.6025C128.957 12.6352 129.168 11.6797 129.576 10.8025C129.98 9.92529 130.572 9.1478 131.31 8.52548C133.065 7.04391 135.317 6.28497 137.61 6.40249C139.115 6.39477 140.611 6.64053 142.034 7.12948C143.581 7.6971 145.04 8.47907 146.369 9.45248L143.68 12.7775C142.767 11.9631 141.717 11.3157 140.58 10.8645C139.676 10.5184 138.717 10.3332 137.749 10.3175C136.748 10.2947 135.76 10.5547 134.9 11.0675C134.537 11.2681 134.232 11.5601 134.015 11.9145C133.805 12.272 133.695 12.6797 133.696 13.0945C133.696 14.3098 134.651 15.0842 136.562 15.4175L141.339 16.3285C145.232 17.0578 147.178 19.0162 147.178 22.2035C147.165 23.0895 146.979 23.9643 146.629 24.7785C146.228 25.683 145.658 26.5022 144.948 27.1915C144.104 27.982 143.103 28.587 142.011 28.9675C140.669 29.4317 139.255 29.6564 137.835 29.6315C134.164 29.6005 130.632 28.2226 127.909 25.7595L131.15 22.4815Z" fill="#B12F15"/>
</svg>
