<svg width="20" height="21" viewBox="0 0 20 21" fill="none" xmlns="http://www.w3.org/2000/svg">
<g clip-path="url(#clip0_345_11339)">
<path d="M7.45088 2.00499L1.50951 7.94636C0.101702 9.35417 0.101702 11.6367 1.50951 13.0445L7.45088 18.9859C8.85869 20.3937 11.1412 20.3937 12.549 18.9859L18.4904 13.0445C19.8982 11.6367 19.8982 9.35417 18.4904 7.94636L12.549 2.00499C11.1412 0.597185 8.85869 0.597184 7.45088 2.00499Z" stroke="#76808D" stroke-miterlimit="10" stroke-linecap="round"/>
<path d="M7.45088 2.00499L1.50951 7.94636C0.101702 9.35417 0.101702 11.6367 1.50951 13.0445L7.45088 18.9859C8.85869 20.3937 11.1412 20.3937 12.549 18.9859L18.4904 13.0445C19.8982 11.6367 19.8982 9.35417 18.4904 7.94636L12.549 2.00499C11.1412 0.597185 8.85869 0.597184 7.45088 2.00499Z" stroke="#76808D" stroke-miterlimit="10" stroke-linecap="round"/>
<path d="M6.72754 8.07397L6.72754 12.926C6.72754 13.3936 7.10658 13.7726 7.57415 13.7726L12.4262 13.7726C12.8938 13.7726 13.2728 13.3936 13.2728 12.926L13.2728 8.07397C13.2728 7.6064 12.8938 7.22736 12.4262 7.22736L7.57415 7.22736C7.10658 7.22736 6.72754 7.6064 6.72754 8.07397Z" stroke="#76808D" stroke-miterlimit="10" stroke-linecap="round"/>
</g>
<defs>
<clipPath id="clip0_345_11339">
<rect width="20" height="20" fill="white" transform="translate(0 0.5)"/>
</clipPath>
</defs>
</svg>
