<svg width="150" height="39" viewBox="0 0 150 39" fill="none" xmlns="http://www.w3.org/2000/svg">
<path d="M49.3836 9.02344V22.9556C49.3457 23.6187 49.4499 24.2823 49.6893 24.9019C49.9327 25.361 50.3083 25.7366 50.7674 25.98L52.5683 27.0112L51.088 29.6494C49.638 29.0294 48.3091 28.1579 47.1627 27.075C46.3544 26.0924 45.952 24.8382 46.0377 23.5687V9.02344H49.3836Z" fill="#C94B32"/>
<path d="M53.7637 18.4172C54.1605 17.4056 54.7586 16.4851 55.5218 15.7115C56.2851 14.938 57.1975 14.3275 58.2037 13.9173C60.4994 13.0159 63.0509 13.0159 65.3465 13.9173C66.3527 14.3277 67.265 14.9382 68.0282 15.7117C68.7914 16.4853 69.3896 17.4057 69.7865 18.4172C70.5588 20.3596 70.5588 22.5237 69.7865 24.466C69.3902 25.4784 68.7922 26.3998 68.029 27.1741C67.2658 27.9485 66.3531 28.5597 65.3465 28.9707C63.0508 29.8714 60.4995 29.8714 58.2037 28.9707C57.197 28.5599 56.2843 27.9488 55.521 27.1744C54.7578 26.4 54.1599 25.4785 53.7637 24.466C52.9915 22.5237 52.9915 20.3596 53.7637 18.4172ZM58.17 25.0294C59.138 25.9681 60.4333 26.493 61.7817 26.493C63.1301 26.493 64.4254 25.9681 65.3934 25.0294C66.3128 24.0611 66.8254 22.7769 66.8254 21.4416C66.8254 20.1064 66.3128 18.8221 65.3934 17.8538C64.4255 16.9149 63.1301 16.3898 61.7817 16.3898C60.4333 16.3898 59.1378 16.9149 58.17 17.8538C57.2412 18.8173 56.7222 20.1034 56.7222 21.4416C56.7222 22.7799 57.2412 24.066 58.17 25.0294Z" fill="#C94B32"/>
<path d="M73.4549 19.4803C73.4124 18.6493 73.5372 17.8182 73.8217 17.0362C74.1063 16.2542 74.5448 15.5373 75.1114 14.9278C75.6309 14.3822 76.258 13.9504 76.9531 13.6599C77.6482 13.3694 78.396 13.2265 79.1492 13.2403C80.1875 13.2089 81.2136 13.4708 82.1099 13.9959C82.8876 14.4562 83.4882 15.1644 83.8152 16.0069H83.8789C84.2088 15.1609 84.8159 14.4519 85.6011 13.9959C86.4928 13.4747 87.5124 13.213 88.5449 13.2403C89.2981 13.2265 90.0459 13.3694 90.741 13.6599C91.4361 13.9504 92.0633 14.3822 92.5827 14.9278C93.1494 15.5372 93.5882 16.2541 93.8729 17.0361C94.1576 17.818 94.2825 18.6492 94.2402 19.4803V29.2303H90.8942V19.5122C90.9362 18.7297 90.6704 17.9619 90.1536 17.3728C89.9219 17.1183 89.6383 16.9162 89.322 16.7802C89.0058 16.6442 88.6641 16.5775 88.3199 16.5844C87.9404 16.5663 87.5615 16.6302 87.209 16.7717C86.8565 16.9133 86.5386 17.1292 86.2771 17.4047C85.7143 18.1331 85.4447 19.0459 85.5214 19.9632V29.2294H82.1746V19.9632C82.2511 19.0459 81.9815 18.1332 81.4189 17.4047C81.1573 17.1293 80.8394 16.9135 80.4869 16.7719C80.1344 16.6304 79.7556 16.5664 79.3761 16.5844C79.0318 16.5773 78.6899 16.644 78.3734 16.78C78.057 16.916 77.7733 17.1181 77.5414 17.3728C77.025 17.962 76.7595 18.7298 76.8017 19.5122V29.2294H73.4558L73.4549 19.4803Z" fill="#C94B32"/>
<path d="M110.586 27.331H110.521C109.949 28.0657 109.203 28.6458 108.35 29.0185C107.426 29.4391 106.421 29.6531 105.405 29.6457C104.253 29.6601 103.111 29.424 102.059 28.9538C101.082 28.5155 100.206 27.8804 99.4849 27.0882C98.7828 26.315 98.2365 25.4135 97.8762 24.4332C97.5167 23.4763 97.3316 22.4628 97.3296 21.4407C97.3361 20.4421 97.5327 19.4539 97.909 18.5288C98.3002 17.5449 98.8669 16.6402 99.5815 15.8588C100.321 15.047 101.219 14.3954 102.221 13.9444C103.271 13.4681 104.413 13.2265 105.566 13.2366C106.595 13.2175 107.614 13.438 108.543 13.8807C109.342 14.2495 110.025 14.8274 110.522 15.5532H110.587V13.6548H113.933V29.2276H110.587L110.586 27.331ZM101.255 23.3935C101.508 23.9985 101.873 24.5498 102.332 25.0182C102.786 25.4819 103.327 25.8512 103.924 26.1048C104.523 26.3617 105.169 26.4928 105.821 26.4901C106.465 26.4881 107.102 26.3561 107.694 26.1018C108.286 25.8476 108.82 25.4765 109.265 25.0107C109.716 24.5389 110.076 23.9882 110.327 23.386C110.842 22.1392 110.842 20.7393 110.327 19.4926C110.076 18.8903 109.716 18.3396 109.265 17.8679C108.592 17.1625 107.719 16.6796 106.764 16.4841C105.809 16.2885 104.817 16.3896 103.921 16.7738C103.323 17.0294 102.781 17.4013 102.327 17.8679C101.868 18.3362 101.503 18.8875 101.25 19.4926C100.735 20.7392 100.735 22.1394 101.25 23.386" fill="#C94B32"/>
<path d="M130.276 27.3309H130.212C129.64 28.0657 128.893 28.6458 128.04 29.0184C127.116 29.4391 126.111 29.6532 125.095 29.6456C123.943 29.6601 122.801 29.424 121.749 28.9538C120.772 28.5155 119.896 27.8804 119.175 27.0881C118.473 26.3149 117.927 25.4134 117.566 24.4331C117.207 23.4762 117.022 22.4628 117.02 21.4406C117.026 20.442 117.223 19.4539 117.599 18.5288C117.99 17.5447 118.557 16.64 119.271 15.8587C120.011 15.0469 120.909 14.3954 121.91 13.9444C122.961 13.468 124.103 13.2264 125.256 13.2366C126.285 13.2175 127.304 13.438 128.233 13.8806C129.032 14.2507 129.716 14.8303 130.212 15.5578H130.276V9.02344H133.623V29.2294H130.276V27.3309ZM120.946 23.3934C121.198 23.9985 121.564 24.5499 122.023 25.0181C122.477 25.4848 123.018 25.8567 123.617 26.1122C124.216 26.3691 124.862 26.5002 125.514 26.4975C126.158 26.4955 126.795 26.3635 127.387 26.1093C127.979 25.8551 128.513 25.4839 128.958 25.0181C129.408 24.5461 129.768 23.9954 130.02 23.3934C130.535 22.1467 130.535 20.7468 130.02 19.5C129.768 18.8979 129.408 18.3472 128.958 17.8753C128.512 17.4071 127.976 17.0348 127.382 16.7812C126.792 16.5266 126.157 16.3954 125.515 16.3959C124.863 16.3932 124.217 16.5243 123.618 16.7812C123.019 17.0368 122.477 17.4087 122.024 17.8753C121.565 18.3434 121.199 18.8949 120.947 19.5C120.431 20.7466 120.431 22.1468 120.947 23.3934" fill="#C94B32"/>
<path d="M138.674 24.5963C139.325 25.2823 140.101 25.839 140.959 26.2369C141.768 26.6444 142.659 26.8645 143.565 26.881C144.353 26.9143 145.132 26.6946 145.786 26.2538C146.028 26.1179 146.233 25.9254 146.384 25.693C146.535 25.4605 146.628 25.1948 146.654 24.9188C146.662 24.693 146.618 24.4685 146.526 24.2622C146.434 24.0559 146.297 23.8732 146.124 23.7282C145.688 23.3929 145.169 23.1817 144.624 23.1169L142.725 22.7625C141.156 22.5873 139.653 22.0294 138.35 21.1378C137.947 20.7917 137.628 20.3587 137.417 19.8716C137.206 19.3844 137.108 18.8558 137.131 18.3253C137.128 17.6427 137.275 16.9677 137.561 16.3479C137.847 15.7282 138.266 15.1788 138.788 14.7385C140.029 13.6911 141.622 13.1549 143.244 13.2385C144.305 13.2334 145.36 13.4074 146.364 13.7531C147.456 14.1526 148.485 14.705 149.422 15.3938L147.523 17.7422C146.88 17.1649 146.139 16.7074 145.335 16.3913C144.698 16.147 144.023 16.0163 143.34 16.005C142.633 15.9875 141.936 16.1716 141.329 16.5357C141.071 16.6748 140.855 16.8815 140.704 17.1338C140.554 17.3861 140.475 17.6745 140.476 17.9681C140.476 18.8263 141.152 19.3731 142.503 19.6088L145.878 20.2528C148.624 20.7672 149.996 22.1507 149.996 24.4032C149.991 25.0289 149.86 25.6471 149.61 26.221C149.331 26.8633 148.926 27.4432 148.419 27.9263C147.826 28.4882 147.118 28.9163 146.345 29.1816C145.398 29.5095 144.402 29.6682 143.4 29.6503C140.806 29.6272 138.311 28.6543 136.386 26.9156L138.674 24.5963Z" fill="#C94B32"/>
<path d="M19.336 2.99537C20.3211 2.99066 21.2972 3.18137 22.2081 3.55648C23.1189 3.93159 23.9462 4.48365 24.6423 5.18068L28.5057 9.04412L33.4923 14.0297C34.8973 15.438 35.6864 17.3462 35.6864 19.3355C35.6864 21.3249 34.8973 23.233 33.4923 24.6413L28.8404 29.2932L24.6432 33.4904C23.232 34.8899 21.325 35.6753 19.3374 35.6753C17.3499 35.6753 15.4428 34.8899 14.0316 33.4904L9.3704 28.8291L5.18165 24.6413C3.78206 23.2301 2.99675 21.3231 2.99675 19.3355C2.99675 17.348 3.78206 15.4409 5.18165 14.0297L9.94696 9.26536L14.0316 5.18068C14.7275 4.48372 15.5547 3.9317 16.4654 3.55659C17.3761 3.18148 18.3521 2.99074 19.337 2.99537H19.336ZM19.337 -0.00463794C17.959 -0.00805536 16.5939 0.260656 15.3201 0.786092C14.0462 1.31153 12.8887 2.08333 11.9138 3.05723L7.82915 7.14285L3.06384 11.9072C1.10242 13.88 0.00146484 16.5489 0.00146484 19.3308C0.00146484 22.1128 1.10242 24.7816 3.06384 26.7544L7.25258 30.9432L11.9138 35.6044C13.8868 37.5656 16.5556 38.6664 19.3374 38.6664C22.1193 38.6664 24.7881 37.5656 26.761 35.6044L30.9591 31.4063L35.612 26.7535C37.5731 24.7806 38.674 22.1117 38.674 19.3299C38.674 16.548 37.5731 13.8792 35.612 11.9063L30.6254 6.92067L26.761 3.05631C25.7862 2.08238 24.6287 1.31053 23.3548 0.78509C22.0809 0.259652 20.7159 -0.00905079 19.3379 -0.00558207" fill="#C94B32"/>
<path d="M19.3359 10.4054C19.9012 10.4027 20.4614 10.5122 20.9841 10.7275C21.5067 10.9428 21.9815 11.2597 22.3809 11.6597L27.0121 16.291C27.8179 17.0993 28.2704 18.1942 28.2704 19.3355C28.2704 20.4769 27.8179 21.5717 27.0121 22.3801L22.3809 27.0113C21.571 27.816 20.4757 28.2676 19.334 28.2676C18.1923 28.2676 17.097 27.816 16.2871 27.0113L11.6559 22.3801C10.8501 21.5717 10.3977 20.4769 10.3977 19.3355C10.3977 18.1942 10.8501 17.0993 11.6559 16.291L16.2871 11.6597C16.6866 11.2597 17.1613 10.9429 17.684 10.7276C18.2067 10.5123 18.7669 10.4027 19.3321 10.4054H19.3359ZM19.3321 9.21755C18.6111 9.21575 17.8969 9.35636 17.2303 9.63131C16.5638 9.90625 15.9581 10.3101 15.4481 10.8197L10.8168 15.451C9.79075 16.4834 9.21484 17.8799 9.21484 19.3355C9.21484 20.7911 9.79075 22.1876 10.8168 23.2201L15.4481 27.8513C16.4805 28.8774 17.877 29.4533 19.3326 29.4533C20.7882 29.4533 22.1847 28.8774 23.2171 27.8513L27.8475 23.2201C28.8735 22.1876 29.4495 20.7911 29.4495 19.3355C29.4495 17.8799 28.8735 16.4834 27.8475 15.451L23.2171 10.8197C22.707 10.3101 22.1011 9.90614 21.4344 9.63119C20.7677 9.35625 20.0533 9.21568 19.3321 9.21755Z" fill="#C94B32"/>
<path d="M20.3187 7.21791C21.2502 7.21593 22.1689 7.43429 22.9999 7.85514C23.8308 8.276 24.5504 8.88742 25.1 9.63948L30.35 16.8816C31.2584 18.147 31.6301 19.72 31.3843 21.2581C31.1385 22.7962 30.295 24.1749 29.0375 25.0942L21.7953 30.3442C20.7973 31.0697 19.5942 31.4588 18.3603 31.4551C17.4289 31.4571 16.5101 31.2387 15.6792 30.8179C14.8482 30.397 14.1286 29.7856 13.5791 29.0335L8.32905 21.7913C7.41581 20.5276 7.04112 18.9533 7.28718 17.4137C7.53323 15.8741 8.37994 14.495 9.64156 13.5788L16.8837 8.32884C17.8818 7.60332 19.0849 7.21424 20.3187 7.21791ZM20.3187 5.59511C18.743 5.59265 17.207 6.08954 15.9312 7.01446L8.68906 12.2645C7.08409 13.4356 6.00741 15.194 5.69391 17.156C5.38041 19.118 5.85553 21.1243 7.01562 22.7373L12.2656 29.9795C13.4364 31.5867 15.196 32.6649 17.1595 32.9785C19.1231 33.2921 21.1309 32.8155 22.7441 31.6529L29.9862 26.4029C31.5927 25.2315 32.6703 23.472 32.9836 21.5086C33.297 19.5453 32.8207 17.5377 31.6587 15.9245L26.4087 8.68229C25.7102 7.72134 24.7935 6.93985 23.7342 6.40203C22.6749 5.86421 21.503 5.5854 20.315 5.58853" fill="#C94B32"/>
<path d="M20.7518 14.685C21.2669 14.6716 21.7731 14.8214 22.198 15.1128C22.623 15.4042 22.945 15.8225 23.1181 16.3078L23.1237 16.3266L23.1293 16.3453L24.1765 19.8665C24.3132 20.419 24.2259 21.0032 23.9337 21.4916C23.6415 21.98 23.168 22.333 22.6165 22.4737L19.4787 23.2753C19.306 23.3197 19.1283 23.342 18.95 23.3419C18.47 23.343 18.0035 23.184 17.6241 22.8901C17.2448 22.5962 16.9743 22.184 16.8556 21.7191L16.8509 21.7003L16.8453 21.6825L15.7971 18.1641C15.6632 17.6117 15.7517 17.0289 16.0435 16.5412C16.3354 16.0535 16.8071 15.7 17.3571 15.5569H17.3684H17.3796L20.2137 14.759C20.3898 14.716 20.5705 14.6946 20.7518 14.6953V14.685ZM20.7518 13.7147C20.4855 13.7128 20.22 13.7443 19.9615 13.8084L17.1153 14.61C16.3103 14.818 15.6204 15.3363 15.1964 16.0514C14.7723 16.7665 14.6486 17.6205 14.8521 18.4266L15.9059 21.9684C16.0808 22.6433 16.4745 23.2412 17.0256 23.6684C17.5766 24.0956 18.2537 24.3279 18.9509 24.329C19.211 24.3302 19.4702 24.2987 19.7225 24.2353L22.8603 23.4337C23.6651 23.2255 24.3548 22.7072 24.7788 21.9921C25.2029 21.2771 25.3267 20.4233 25.1234 19.6172L24.0696 16.0762C23.8426 15.3793 23.3977 14.7738 22.8006 14.3488C22.2034 13.9238 21.4856 13.7019 20.7528 13.7156" fill="#C94B32"/>
</svg>
