<?xml version="1.0" standalone="no"?>
<!DOCTYPE svg PUBLIC "-//W3C//DTD SVG 20010904//EN"
 "http://www.w3.org/TR/2001/REC-SVG-20010904/DTD/svg10.dtd">
<svg version="1.0" xmlns="http://www.w3.org/2000/svg"
 width="400.000000pt" height="400.000000pt" viewBox="0 0 400.000000 400.000000"
 preserveAspectRatio="xMidYMid meet">

<g transform="translate(0.000000,400.000000) scale(0.100000,-0.100000)"
fill="#000000" stroke="none">
<path d="M1835 3994 c-403 -43 -741 -174 -1047 -405 -106 -80 -297 -271 -377
-377 -205 -271 -330 -566 -388 -912 -24 -146 -24 -455 0 -600 75 -445 256
-800 566 -1111 309 -308 670 -492 1111 -566 145 -24 455 -24 600 0 443 74 800
256 1111 566 309 310 492 668 566 1111 24 146 24 455 0 600 -75 445 -256 800
-566 1111 -303 302 -658 486 -1081 560 -112 19 -402 33 -495 23z m-102 -1459
c153 -36 251 -136 272 -275 13 -89 -58 -418 -115 -529 -37 -74 -114 -160 -175
-195 -103 -61 -316 -85 -442 -52 -167 44 -263 157 -263 307 0 107 74 411 122
503 38 71 113 151 179 189 102 60 292 83 422 52z m1035 -5 c158 -18 255 -84
288 -197 16 -54 16 -63 1 -137 -21 -102 -55 -170 -113 -228 -89 -89 -185 -117
-402 -118 -105 0 -144 -3 -147 -12 -3 -7 -20 -85 -39 -172 -24 -114 -39 -164
-52 -173 -26 -19 -237 -18 -253 1 -9 11 7 100 69 392 45 209 92 433 106 499
18 85 31 125 45 137 17 14 47 17 217 17 108 1 234 -3 280 -9z"/>
<path d="M1483 2309 c-54 -27 -86 -65 -112 -132 -29 -80 -71 -288 -71 -357 0
-51 4 -64 29 -92 24 -27 36 -32 88 -36 105 -7 173 30 218 118 51 101 100 391
76 452 -25 66 -142 90 -228 47z"/>
<path d="M2471 2228 c-11 -51 -23 -110 -27 -130 l-6 -38 107 0 c123 0 161 13
202 67 19 24 28 50 31 88 4 47 1 57 -21 79 -25 25 -31 26 -146 26 l-119 0 -21
-92z"/>
</g>
</svg>
