<svg width="47" height="38" viewBox="0 0 47 38" fill="none" xmlns="http://www.w3.org/2000/svg">
<g filter="url(#filter0_dd_373_10146)">
<circle cx="25.5" cy="14.4993" r="14.5" fill="white"/>
</g>
<g clip-path="url(#clip0_373_10146)">
<path d="M17.4362 14.7958C17.4362 10.2247 21.1437 6.51715 25.7236 6.51715C27.1107 6.51715 28.4192 6.85737 29.5707 7.46802" stroke="#C94B32" stroke-miterlimit="10" stroke-linecap="round"/>
<path d="M29.1084 5.43542L30.4082 7.53781L28.2273 8.70677" stroke="#C94B32" stroke-miterlimit="10" stroke-linecap="round"/>
<path d="M34.0023 14.7958C34.0023 19.367 30.2948 23.0833 25.7149 23.0833C24.04 23.0833 22.4784 22.586 21.1699 21.7311" stroke="#C94B32" stroke-miterlimit="10" stroke-linecap="round"/>
<path d="M20.8558 23.5631L20.2103 21.1815L22.6267 20.6843" stroke="#C94B32" stroke-miterlimit="10" stroke-linecap="round"/>
<path d="M24.3667 10.4247L21.3132 13.4781C20.5672 14.2242 20.5672 15.4339 21.3132 16.1799L24.3667 19.2334C25.1127 19.9794 26.3224 19.9794 27.0685 19.2334L30.1219 16.1799C30.868 15.4339 30.868 14.2242 30.1219 13.4781L27.0685 10.4247C26.3224 9.67864 25.1127 9.67864 24.3667 10.4247Z" stroke="#C94B32" stroke-miterlimit="10" stroke-linecap="round"/>
<path d="M24.0138 13.9322V15.7206C24.0138 16.1686 24.377 16.5319 24.8251 16.5319H26.6134C27.0615 16.5319 27.4247 16.1686 27.4247 15.7206V13.9322C27.4247 13.4842 27.0615 13.1209 26.6134 13.1209H24.8251C24.377 13.1209 24.0138 13.4842 24.0138 13.9322Z" stroke="#C94B32" stroke-miterlimit="10" stroke-linecap="round"/>
</g>
<defs>
<filter id="filter0_dd_373_10146" x="0" y="-11.0007" width="47" height="49" filterUnits="userSpaceOnUse" color-interpolation-filters="sRGB">
<feFlood flood-opacity="0" result="BackgroundImageFix"/>
<feColorMatrix in="SourceAlpha" type="matrix" values="0 0 0 0 0 0 0 0 0 0 0 0 0 0 0 0 0 0 127 0" result="hardAlpha"/>
<feOffset dx="-3" dy="-3"/>
<feGaussianBlur stdDeviation="4"/>
<feComposite in2="hardAlpha" operator="out"/>
<feColorMatrix type="matrix" values="0 0 0 0 0.788235 0 0 0 0 0.294118 0 0 0 0 0.196078 0 0 0 0.1 0"/>
<feBlend mode="normal" in2="BackgroundImageFix" result="effect1_dropShadow_373_10146"/>
<feColorMatrix in="SourceAlpha" type="matrix" values="0 0 0 0 0 0 0 0 0 0 0 0 0 0 0 0 0 0 127 0" result="hardAlpha"/>
<feOffset dx="3" dy="5"/>
<feGaussianBlur stdDeviation="2"/>
<feComposite in2="hardAlpha" operator="out"/>
<feColorMatrix type="matrix" values="0 0 0 0 0.105882 0 0 0 0 0.168627 0 0 0 0 0.254902 0 0 0 0.05 0"/>
<feBlend mode="normal" in2="effect1_dropShadow_373_10146" result="effect2_dropShadow_373_10146"/>
<feBlend mode="normal" in="SourceGraphic" in2="effect2_dropShadow_373_10146" result="shape"/>
</filter>
<clipPath id="clip0_373_10146">
<rect width="17.4385" height="19" fill="white" transform="translate(17 4.99927)"/>
</clipPath>
</defs>
</svg>
